HIERARCHY
ROOT Model
{
	OFFSET 0 0 0
	CHANNELS 6 Xposition Yposition Zposition Zrotation Xrotation Yrotation
	JOINT Model1
	{
		OFFSET 0 -2.25479 2.99384
		CHANNELS 3 Zrotation Xrotation Yrotation
		JOINT Model2
		{
			OFFSET 12.111 0 0
			CHANNELS 3 Zrotation Xrotation Yrotation
			JOINT Model3
			{
				OFFSET 11.5502 0 0
				CHANNELS 3 Zrotation Xrotation Yrotation
				JOINT Model4
				{
					OFFSET 11.781 0 0
					CHANNELS 3 Zrotation Xrotation Yrotation
					JOINT Model5
					{
						OFFSET 20.0601 0 0
						CHANNELS 3 Zrotation Xrotation Yrotation
						JOINT Model6
						{
							OFFSET 11.1962 0 0
							CHANNELS 3 Zrotation Xrotation Yrotation
							End Site
							{
								OFFSET 0 0 0
							}
						}
					}
					JOINT Model7
					{
						OFFSET 10.8223 0.417534 3.51114
						CHANNELS 3 Zrotation Xrotation Yrotation
						JOINT Model8
						{
							OFFSET -6.07944 0 0
							CHANNELS 3 Zrotation Xrotation Yrotation
							JOINT Model9
							{
								OFFSET -0.277405 10.39 -0.051239
								CHANNELS 3 Zrotation Xrotation Yrotation
								JOINT Model10
								{
									OFFSET -3.43909 -0.282043 1.86679
									CHANNELS 3 Zrotation Xrotation Yrotation
									JOINT Model11
									{
										OFFSET 13.0269 0 0
										CHANNELS 3 Zrotation Xrotation Yrotation
										JOINT Model12
										{
											OFFSET 10.8866 0 0
											CHANNELS 3 Zrotation Xrotation Yrotation
											JOINT Model13
											{
												OFFSET 16.7317 0 0
												CHANNELS 3 Zrotation Xrotation Yrotation
												JOINT Model14
												{
													OFFSET 11.8292 0 0
													CHANNELS 3 Zrotation Xrotation Yrotation
													JOINT Model15
													{
														OFFSET 4.82751 -3.73566 -0.836517
														CHANNELS 3 Zrotation Xrotation Yrotation
														JOINT Model16
														{
															OFFSET 3.75311 -0.0582886 -0.0186462
															CHANNELS 3 Zrotation Xrotation Yrotation
															JOINT Model17
															{
																OFFSET 2.88689 0.0192337 0.014801
																CHANNELS 3 Zrotation Xrotation Yrotation
																End Site
																{
																	OFFSET 0 0 0
																}
															}
														}
													}
													JOINT Model18
													{
														OFFSET 9.72197 -3.06458 0.23877
														CHANNELS 3 Zrotation Xrotation Yrotation
														JOINT Model19
														{
															OFFSET 4.61131 0 0
															CHANNELS 3 Zrotation Xrotation Yrotation
															JOINT Model20
															{
																OFFSET 2.8969 -7.62939e-006 0
																CHANNELS 3 Zrotation Xrotation Yrotation
																End Site
																{
																	OFFSET 0 0 0
																}
															}
														}
													}
													JOINT Model21
													{
														OFFSET 9.54431 -0.745064 0.588928
														CHANNELS 3 Zrotation Xrotation Yrotation
														JOINT Model22
														{
															OFFSET 5.33978 0 0
															CHANNELS 3 Zrotation Xrotation Yrotation
															JOINT Model23
															{
																OFFSET 3.03619 7.62939e-006 0
																CHANNELS 3 Zrotation Xrotation Yrotation
																End Site
																{
																	OFFSET 0 0 0
																}
															}
														}
													}
													JOINT Model24
													{
														OFFSET 9.47758 1.51286 0.485107
														CHANNELS 3 Zrotation Xrotation Yrotation
														JOINT Model25
														{
															OFFSET 4.96136 7.62939e-006 0
															CHANNELS 3 Zrotation Xrotation Yrotation
															JOINT Model26
															{
																OFFSET 2.51965 0 0
																CHANNELS 3 Zrotation Xrotation Yrotation
																End Site
																{
																	OFFSET 0 0 0
																}
															}
														}
													}
													JOINT Model27
													{
														OFFSET 9.34247 3.34117 -0.239288
														CHANNELS 3 Zrotation Xrotation Yrotation
														JOINT Model28
														{
															OFFSET 3.28259 2.28882e-005 0
															CHANNELS 3 Zrotation Xrotation Yrotation
															JOINT Model29
															{
																OFFSET 2.1292 0 0
																CHANNELS 3 Zrotation Xrotation Yrotation
																End Site
																{
																	OFFSET 0 0 0
																}
															}
														}
													}
												}
											}
										}
									}
								}
							}
						}
					}
					JOINT Model30
					{
						OFFSET 10.8223 0.4179 -3.51108
						CHANNELS 3 Zrotation Xrotation Yrotation
						JOINT Model31
						{
							OFFSET 6.07944 0 0
							CHANNELS 3 Zrotation Xrotation Yrotation
							JOINT Model32
							{
								OFFSET 0.277405 -10.39 0.051239
								CHANNELS 3 Zrotation Xrotation Yrotation
								JOINT Model33
								{
									OFFSET 3.43909 0.282043 -1.86679
									CHANNELS 3 Zrotation Xrotation Yrotation
									JOINT Model34
									{
										OFFSET -13.0269 0 0
										CHANNELS 3 Zrotation Xrotation Yrotation
										JOINT Model35
										{
											OFFSET -10.8866 0 0
											CHANNELS 3 Zrotation Xrotation Yrotation
											JOINT Model36
											{
												OFFSET -16.7317 0 0
												CHANNELS 3 Zrotation Xrotation Yrotation
												JOINT Model37
												{
													OFFSET -11.8292 0 0
													CHANNELS 3 Zrotation Xrotation Yrotation
													JOINT Model38
													{
														OFFSET -4.82751 3.73566 0.836517
														CHANNELS 3 Zrotation Xrotation Yrotation
														JOINT Model39
														{
															OFFSET -3.75311 0.0582886 0.0186462
															CHANNELS 3 Zrotation Xrotation Yrotation
															JOINT Model40
															{
																OFFSET -2.88687 -0.0192337 -0.014801
																CHANNELS 3 Zrotation Xrotation Yrotation
																End Site
																{
																	OFFSET 0 0 0
																}
															}
														}
													}
													JOINT Model41
													{
														OFFSET -9.72198 3.06459 -0.23877
														CHANNELS 3 Zrotation Xrotation Yrotation
														JOINT Model42
														{
															OFFSET -4.6113 0 0
															CHANNELS 3 Zrotation Xrotation Yrotation
															JOINT Model43
															{
																OFFSET -2.89691 0 0
																CHANNELS 3 Zrotation Xrotation Yrotation
																End Site
																{
																	OFFSET 0 0 0
																}
															}
														}
													}
													JOINT Model44
													{
														OFFSET -9.54431 0.745064 -0.588928
														CHANNELS 3 Zrotation Xrotation Yrotation
														JOINT Model45
														{
															OFFSET -5.33978 0 0
															CHANNELS 3 Zrotation Xrotation Yrotation
															JOINT Model46
															{
																OFFSET -3.03619 -1.52588e-005 0
																CHANNELS 3 Zrotation Xrotation Yrotation
																End Site
																{
																	OFFSET 0 0 0
																}
															}
														}
													}
													JOINT Model47
													{
														OFFSET -9.4776 -1.51286 -0.485107
														CHANNELS 3 Zrotation Xrotation Yrotation
														JOINT Model48
														{
															OFFSET -4.96136 -1.52588e-005 0
															CHANNELS 3 Zrotation Xrotation Yrotation
															JOINT Model49
															{
																OFFSET -2.51965 0 0
																CHANNELS 3 Zrotation Xrotation Yrotation
																End Site
																{
																	OFFSET 0 0 0
																}
															}
														}
													}
													JOINT Model50
													{
														OFFSET -9.34247 -3.34118 0.239288
														CHANNELS 3 Zrotation Xrotation Yrotation
														JOINT Model51
														{
															OFFSET -3.28259 -2.28882e-005 0
															CHANNELS 3 Zrotation Xrotation Yrotation
															JOINT Model52
															{
																OFFSET -2.12921 0 0
																CHANNELS 3 Zrotation Xrotation Yrotation
																End Site
																{
																	OFFSET 0 0 0
																}
															}
														}
													}
												}
											}
										}
									}
								}
							}
						}
					}
				}
			}
		}
	}
	JOINT Model53
	{
		OFFSET 4.38025 -2.14632 -1.11517
		CHANNELS 3 Zrotation Xrotation Yrotation
		JOINT Model54
		{
			OFFSET 0 0 4.94998
			CHANNELS 3 Zrotation Xrotation Yrotation
			JOINT Model55
			{
				OFFSET 18.5642 0 0
				CHANNELS 3 Zrotation Xrotation Yrotation
				JOINT Model56
				{
					OFFSET 21.2884 0 0
					CHANNELS 3 Zrotation Xrotation Yrotation
					JOINT Model57
					{
						OFFSET 30.261 0 0
						CHANNELS 3 Zrotation Xrotation Yrotation
						JOINT Model58
						{
							OFFSET 11.7259 0 0
							CHANNELS 3 Zrotation Xrotation Yrotation
							JOINT Model59
							{
								OFFSET 10.682 0 0
								CHANNELS 3 Zrotation Xrotation Yrotation
								End Site
								{
									OFFSET 0 0 0
								}
							}
						}
					}
				}
			}
		}
	}
	JOINT Model60
	{
		OFFSET -4.38025 -2.14632 -1.11517
		CHANNELS 3 Zrotation Xrotation Yrotation
		JOINT Model61
		{
			OFFSET 0 0 -4.94998
			CHANNELS 3 Zrotation Xrotation Yrotation
			JOINT Model62
			{
				OFFSET -18.5642 0 0
				CHANNELS 3 Zrotation Xrotation Yrotation
				JOINT Model63
				{
					OFFSET -21.2884 0 0
					CHANNELS 3 Zrotation Xrotation Yrotation
					JOINT Model64
					{
						OFFSET -30.261 0 0
						CHANNELS 3 Zrotation Xrotation Yrotation
						JOINT Model65
						{
							OFFSET -11.7259 0 0
							CHANNELS 3 Zrotation Xrotation Yrotation
							JOINT Model66
							{
								OFFSET -10.682 0 0
								CHANNELS 3 Zrotation Xrotation Yrotation
								End Site
								{
									OFFSET 0 0 0
								}
							}
						}
					}
				}
			}
		}
	}
}
MOTION
Frames: 4
Frame Time: 0.033333
-652.8 174.074 -758.374 91.0866 -52.9993 91.9247 -180 4.29621e-031 -90 0.171312 0.170923 -0.239165 0.343332 0.340691 -0.478844 0.343332 0.341128 -0.478846 0.957034 0.575795 1.45249 7.46454 0.867459 0.167445 120.092 75.5343 58.4939 -2.899 1.37637 1.27884 -167.277 84.4999 48.8109 176.521 2.07099 4.11072 -4.50429e-007 25.2034 3.44995e-005 -21.7553 5.47918 0.730099 7.3361e-007 7.84856 8.10678e-007 -6.20836 -0.238678 4.39897 -72.0648 39.0385 39.3397 33.3638 2.10362 14.835 0.588947 0.308273 6.35287 -99.6409 81.413 100.35 -0.0181408 2.78271e-005 -0.117315 -0.124139 0.00241119 -0.799296 -79.8382 79.5773 80.5374 -0.00022569 -0.000220872 2.21465e-005 -0.000956109 0.000122963 -2.73856e-005 -66.7416 80.4058 67.2171 -0.000437045 1.59952e-005 -2.73726e-005 -0.000136486 -0.000109224 -5.47118e-005 -6.42159 81.2158 8.01779 -0.00021848 1.69434e-005 0.000212076 0.0009017 -0.000184754 -0.000218654 -59.9282 75.5373 58.5147 -2.65241 3.58802 1.96894 -167.277 84.4999 48.8109 -171.471 -9.10996 15.6637 5.49126e-006 2.49043 2.97294e-005 -32.1242 17.1738 0.33804 -1.08459e-005 25.2444 5.53944e-006 -3.74165 -0.00888189 0.271876 -72.0648 39.0385 39.3397 33.3638 2.10361 14.835 0.588946 0.308273 6.35287 -99.6409 81.413 100.35 -0.018141 3.00215e-005 -0.117315 -0.124139 0.00241106 -0.799296 -79.8382 79.5773 80.5374 -0.000260695 -0.00021862 2.35617e-005 -0.000956292 0.000122923 -2.73326e-005 -66.7416 80.4058 67.2171 -0.000437183 1.48251e-005 -2.7328e-005 -0.000136673 -0.000109359 -5.46514e-005 -6.42159 81.2158 8.01779 -0.000218635 1.95082e-005 0.000212294 0.00090149 -0.000191341 -0.00021857 0.000811311 0.56661 89.91 -19.2626 -0.454235 -4.13002 6.49291e-007 1.74601 -6.19919e-009 39.4818 -2.38534 -1.8908 -1.09033e-007 -3.65447 -1.00428e-007 -69.5136 -3.39299 0.798942 -35.4947 5.37134e-007 -1.20488e-007 -180 -0.566579 -90.09 -18.0161 -5.18289 -7.76305 -1.12402e-006 -3.15063 -4.62085e-008 37.2243 -1.2893 -0.427987 3.42472e-007 -2.0043 -1.23421e-007 -68.0586 -3.47782 0.949544 -35.4947 3.69165e-007 6.46471e-007 
-652.805 174.073 -758.392 91.0549 -53.0004 91.8945 -180 4.29621e-031 -90 0.17194 0.168791 -0.237812 0.344575 0.336429 -0.476132 0.344575 0.336866 -0.476135 0.934509 0.567137 1.4558 7.45739 0.860229 0.117313 120.092 75.5343 58.4939 -3.18332 1.45837 1.36002 -167.277 84.4999 48.8109 176.359 2.35211 4.94723 -5.18883e-007 25.3062 3.45287e-005 -21.898 5.70972 0.681659 7.287e-007 8.19199 8.11363e-007 -6.36541 -0.246716 4.43467 -72.0648 39.0385 39.3397 33.3638 2.10362 14.835 0.588947 0.308273 6.35287 -99.6409 81.413 100.35 -0.0181408 2.78271e-005 -0.117315 -0.124139 0.00241119 -0.799296 -79.8382 79.5773 80.5374 -0.00022569 -0.000220872 2.21465e-005 -0.000956109 0.000122963 -2.73856e-005 -66.7416 80.4058 67.2171 -0.000437045 1.59952e-005 -2.73726e-005 -0.000136486 -0.000109224 -5.47118e-005 -6.42159 81.2158 8.01779 -0.00021848 1.69434e-005 0.000212076 0.0009017 -0.000184754 -0.000218654 -59.9282 75.5373 58.5147 -2.92843 3.50503 1.99861 -167.277 84.4999 48.8109 -172.973 -9.10383 16.277 5.58183e-006 2.31603 2.97256e-005 -29.1661 17.3866 0.306298 -1.08841e-005 25.6007 5.55583e-006 -4.90738 0.0274632 -0.64093 -72.0648 39.0385 39.3397 33.3638 2.10361 14.835 0.588946 0.308273 6.35287 -99.6409 81.413 100.35 -0.018141 3.00215e-005 -0.117315 -0.124139 0.00241106 -0.799296 -79.8382 79.5773 80.5374 -0.000260695 -0.00021862 2.35617e-005 -0.000956292 0.000122923 -2.73326e-005 -66.7416 80.4058 67.2171 -0.000437183 1.48251e-005 -2.7328e-005 -0.000136673 -0.000109359 -5.46514e-005 -6.42159 81.2158 8.01779 -0.000218635 1.95082e-005 0.000212294 0.00090149 -0.000191341 -0.00021857 0.000811311 0.56661 89.91 -19.2922 -0.410946 -4.08404 6.49295e-007 1.78311 -6.19932e-009 39.4857 -2.42622 -1.90399 -1.09141e-007 -3.71585 -1.00435e-007 -69.4958 -3.42371 0.816262 -35.4947 5.29425e-007 -1.07684e-007 -180 -0.566579 -90.09 -18.0533 -5.18094 -7.77811 -1.12401e-006 -3.14321 -4.62081e-008 37.2349 -1.28905 -0.415298 3.42472e-007 -2.00394 -1.23421e-007 -68.0513 -3.47436 0.948217 -35.4947 3.15352e-007 6.20383e-007 
-652.818 174.071 -758.434 90.9779 -53.0024 91.8211 -180 4.29621e-031 -90 0.173476 0.163498 -0.234514 0.347617 0.325847 -0.469525 0.347617 0.326284 -0.469527 0.880064 0.546029 1.46409 7.43951 0.842679 -0.00472375 120.092 75.5343 58.4939 -3.86814 1.65039 1.55581 -167.277 84.4999 48.8109 175.908 2.9852 6.93548 -6.57025e-007 25.513 3.45879e-005 -22.1507 6.2542 0.552299 7.17053e-007 9.00441 8.13105e-007 -6.70595 -0.263282 4.49154 -72.0648 39.0385 39.3397 33.3638 2.10362 14.835 0.588947 0.308273 6.35287 -99.6409 81.413 100.35 -0.0181408 2.78271e-005 -0.117315 -0.124139 0.00241119 -0.799296 -79.8382 79.5773 80.5374 -0.00022569 -0.000220872 2.21465e-005 -0.000956109 0.000122963 -2.73856e-005 -66.7416 80.4058 67.2171 -0.000437045 1.59952e-005 -2.73726e-005 -0.000136486 -0.000109224 -5.47118e-005 -6.42159 81.2158 8.01779 -0.00021848 1.69434e-005 0.000212076 0.0009017 -0.000184754 -0.000218654 -59.9282 75.5373 58.5147 -3.58907 3.30298 2.06705 -167.277 84.4999 48.8109 -178.188 -9.43268 17.606 5.87044e-006 1.75998 2.97153e-005 -18.8131 17.8391 -0.0579035 -1.09745e-005 26.436 5.59551e-006 -8.8017 0.300168 -3.89881 -72.0648 39.0385 39.3397 33.3638 2.10361 14.835 0.588946 0.308273 6.35287 -99.6409 81.413 100.35 -0.018141 3.00215e-005 -0.117315 -0.124139 0.00241106 -0.799296 -79.8382 79.5773 80.5374 -0.000260695 -0.00021862 2.35617e-005 -0.000956292 0.000122923 -2.73326e-005 -66.7416 80.4058 67.2171 -0.000437183 1.48251e-005 -2.7328e-005 -0.000136673 -0.000109359 -5.46514e-005 -6.42159 81.2158 8.01779 -0.000218635 1.95082e-005 0.000212294 0.00090149 -0.000191341 -0.00021857 0.000811311 0.56661 89.91 -19.3643 -0.304784 -3.97135 6.49305e-007 1.87436 -6.19963e-009 39.495 -2.52622 -1.93649 -1.09405e-007 -3.86603 -1.00453e-007 -69.4517 -3.49892 0.858741 -35.4947 5.08347e-007 -8.82453e-008 -180 -0.566579 -90.09 -18.1434 -5.17665 -7.81492 -1.124e-006 -3.12575 -4.62074e-008 37.2604 -1.28827 -0.384547 3.42475e-007 -2.0028 -1.23421e-007 -68.0334 -3.46585 0.94495 -35.4947 2.06065e-007 5.79717e-007 
-652.834 174.068 -758.487 90.8828 -53.0033 91.7305 -180 4.29621e-031 -90 0.175332 0.156663 -0.230423 0.35129 0.312181 -0.461327 0.35129 0.312618 -0.46133 0.813516 0.520022 1.47448 7.41667 0.821156 -0.155532 120.092 75.5343 58.4939 -4.70401 1.87261 1.79455 -167.277 84.4999 48.8109 175.257 3.6726 9.2971 -7.80291e-007 25.697 3.46412e-005 -22.2901 6.89197 0.376984 7.03307e-007 9.95844 8.15369e-007 -7.05086 -0.27801 4.51023 -72.0648 39.0385 39.3397 33.3638 2.10362 14.835 0.588947 0.308273 6.35287 -99.6409 81.413 100.35 -0.0181408 2.78271e-005 -0.117315 -0.124139 0.00241119 -0.799296 -79.8382 79.5773 80.5374 -0.00022569 -0.000220872 2.21465e-005 -0.000956109 0.000122963 -2.73856e-005 -66.7416 80.4058 67.2171 -0.000437045 1.59952e-005 -2.73726e-005 -0.000136486 -0.000109224 -5.47118e-005 -6.42159 81.2158 8.01779 -0.00021848 1.69434e-005 0.000212076 0.0009017 -0.000184754 -0.000218654 -59.9282 75.5373 58.5147 -4.38707 3.05332 2.1451 -167.277 84.4999 48.8109 173.054 -11.0321 18.6011 6.74185e-006 0.0795229 2.97013e-005 -1.20524 18.7227 -0.351018 -1.11607e-005 28.1181 5.68087e-006 -14.9444 1.28917 -9.80551 -72.0648 39.0385 39.3397 33.3638 2.10361 14.835 0.588946 0.308273 6.35287 -99.6409 81.413 100.35 -0.018141 3.00215e-005 -0.117315 -0.124139 0.00241106 -0.799296 -79.8382 79.5773 80.5374 -0.000260695 -0.00021862 2.35617e-005 -0.000956292 0.000122923 -2.73326e-005 -66.7416 80.4058 67.2171 -0.000437183 1.48251e-005 -2.7328e-005 -0.000136673 -0.000109359 -5.46514e-005 -6.42159 81.2158 8.01779 -0.000218635 1.95082e-005 0.000212294 0.00090149 -0.000191341 -0.00021857 0.000811311 0.56661 89.91 -19.4535 -0.171255 -3.82977 6.49318e-007 1.98966 -6.20005e-009 39.506 -2.65144 -1.97783 -1.09736e-007 -4.05411 -1.00475e-007 -69.3958 -3.59338 0.91224 -35.4947 4.74519e-007 -6.24789e-008 -180 -0.566579 -90.09 -18.2546 -5.17175 -7.86057 -1.12398e-006 -3.10477 -4.62064e-008 37.2917 -1.28751 -0.34648 3.42477e-007 -2.00172 -1.23421e-007 -68.0112 -3.45542 0.940964 -35.4947 4.43856e-008 5.25282e-007 
